# xmcd
#
# Track frame offsets:
#	150
#	15700
#	34612
#	54860
#	68167
#	84992
#	98040
#	105975
#	125495
#	135257
#	154790
#	168375
#	179882
#	201022
#	210600
#	221165
#	228725
#	237607
#
# Disc length: 3561 seconds
#
# Revision: 0
# Processed by: cddbd v1.5.2PL0 Copyright (c) Steve Scherf et al.
# Submitted via: audiograbber 1.83.01
#
DISCID=f60de712
DTITLE=Mysia - Land Ho!
DYEAR=1993
DGENRE=New Age
TTITLE0=Easy Going
TTITLE1=Inward
TTITLE2=Blue Veils
TTITLE3=Ezra
TTITLE4=To And Fro
TTITLE5=Land Ho!
TTITLE6=Weather In Seven
TTITLE7=Alliance
TTITLE8=Nova
TTITLE9=T*R*E
TTITLE10=Empty Pages
TTITLE11=Gambler
TTITLE12=Streets Of Life
TTITLE13=Hell For Leather
TTITLE14=Against The Wind
TTITLE15=Underbreath
TTITLE16=Echoes Of The Night
TTITLE17=Space In The Mind
EXTD=YEAR: 1993
EXTT0=
EXTT1=
EXTT2=
EXTT3=
EXTT4=
EXTT5=
EXTT6=
EXTT7=
EXTT8=
EXTT9=
EXTT10=
EXTT11=
EXTT12=
EXTT13=
EXTT14=
EXTT15=
EXTT16=
EXTT17=
PLAYORDER=
